<?xml version="1.0" standalone="no"?>
<!DOCTYPE svg PUBLIC "-//W3C//DTD SVG 20010904//EN"
 "http://www.w3.org/TR/2001/REC-SVG-20010904/DTD/svg10.dtd">
<svg version="1.0" xmlns="http://www.w3.org/2000/svg"
 width="934.000000pt" height="934.000000pt" viewBox="0 0 934.000000 934.000000"
 preserveAspectRatio="xMidYMid meet">

<g transform="translate(0.000000,934.000000) scale(0.100000,-0.100000)"
fill="#000000" stroke="none">
<path d="M0 5325 l0 -4015 50 0 50 0 0 50 0 50 50 0 50 0 0 50 0 50 100 0 100
0 0 50 0 50 50 0 50 0 0 50 0 50 50 0 50 0 0 50 0 50 100 0 100 0 0 50 0 50
-50 0 -50 0 0 500 0 500 -50 0 -50 0 0 50 0 50 50 0 50 0 0 150 0 150 50 0 50
0 0 50 0 50 50 0 50 0 0 55 0 55 50 0 50 0 0 -1005 0 -1005 -50 0 -50 0 0 -50
0 -50 -50 0 -50 0 0 -50 0 -50 -100 0 -100 0 0 -50 0 -50 -50 0 -50 0 0 -55 0
-55 -50 0 -50 0 0 -50 0 -50 -50 0 -50 0 0 -50 0 -50 -150 0 -150 0 0 -200 0
-200 50 0 50 0 0 50 0 50 50 0 50 0 0 50 0 50 100 0 100 0 0 100 0 100 50 0
50 0 0 50 0 50 100 0 100 0 0 50 0 50 200 0 200 0 0 -100 0 -100 -50 0 -50 0
0 -50 0 -50 -50 0 -50 0 0 -200 0 -200 -50 0 -50 0 0 -50 0 -50 -50 0 -50 0 0
-100 0 -100 -50 0 -50 0 0 -50 0 -50 200 0 200 0 0 150 0 150 50 0 50 0 0 100
0 100 55 0 55 0 0 150 0 150 50 0 50 0 0 150 0 150 100 0 100 0 0 55 0 55 50
0 50 0 0 -55 0 -55 50 0 50 0 0 -100 0 -100 50 0 50 0 0 -50 0 -50 50 0 50 0
0 50 0 50 50 0 50 0 0 50 0 50 50 0 50 0 0 -50 0 -50 100 0 100 0 0 -50 0 -50
-100 0 -100 0 0 -150 0 -150 -100 0 -100 0 0 -50 0 -50 -50 0 -50 0 0 -100 0
-100 -50 0 -50 0 0 -100 0 -100 450 0 450 0 0 50 0 50 50 0 50 0 0 -50 0 -50
2610 0 2610 0 0 150 0 150 50 0 50 0 0 50 0 50 50 0 50 0 0 -50 0 -50 55 0 55
0 0 -50 0 -50 50 0 50 0 0 -100 0 -100 450 0 450 0 0 50 0 50 -50 0 -50 0 0
100 0 100 -50 0 -50 0 0 250 0 250 50 0 50 0 0 50 0 50 50 0 50 0 0 -150 0
-150 50 0 50 0 0 200 0 200 -50 0 -50 0 0 105 0 105 50 0 50 0 0 200 0 200
-50 0 -50 0 0 -100 0 -100 -50 0 -50 0 0 50 0 50 -50 0 -50 0 0 50 0 50 -50 0
-50 0 0 50 0 50 -100 0 -100 0 0 50 0 50 -50 0 -50 0 0 50 0 50 -50 0 -50 0 0
50 0 50 -100 0 -100 0 0 50 0 50 -50 0 -50 0 0 50 0 50 50 0 50 0 0 400 0 400
50 0 50 0 0 355 0 355 50 0 50 0 0 -100 0 -100 50 0 50 0 0 50 0 50 100 0 100
0 0 -205 0 -205 -50 0 -50 0 0 -200 0 -200 -50 0 -50 0 0 -300 0 -300 50 0 50
0 0 -50 0 -50 50 0 50 0 0 -50 0 -50 100 0 100 0 0 -50 0 -50 50 0 50 0 0 -50
0 -50 50 0 50 0 0 -50 0 -50 50 0 50 0 0 1255 0 1255 -50 0 -50 0 0 -100 0
-100 -50 0 -50 0 0 -50 0 -50 -50 0 -50 0 0 150 0 150 50 0 50 0 0 100 0 100
100 0 100 0 0 1105 0 1105 -50 0 -50 0 0 100 0 100 50 0 50 0 0 50 0 50 -50 0
-50 0 0 100 0 100 -50 0 -50 0 0 50 0 50 50 0 50 0 0 100 0 100 50 0 50 0 0
50 0 50 -50 0 -50 0 0 50 0 50 -100 0 -100 0 0 -50 0 -50 -50 0 -50 0 0 -50 0
-50 -150 0 -150 0 0 100 0 100 -50 0 -50 0 0 405 0 405 50 0 50 0 0 350 0 350
150 0 150 0 0 -555 0 -555 50 0 50 0 0 -50 0 -50 50 0 50 0 0 -50 0 -50 100 0
100 0 0 755 0 755 -350 0 -350 0 0 -100 0 -100 -150 0 -150 0 0 100 0 100
-455 0 -455 0 0 -50 0 -50 -1105 0 -1105 0 0 -50 0 -50 -200 0 -200 0 0 50 0
50 -100 0 -100 0 0 50 0 50 -200 0 -200 0 0 -50 0 -50 -455 0 -455 0 0 50 0
50 -150 0 -150 0 0 -50 0 -50 -550 0 -550 0 0 -50 0 -50 -150 0 -150 0 0 -100
0 -100 -50 0 -50 0 0 50 0 50 -100 0 -100 0 0 -100 0 -100 -205 0 -205 0 0
-100 0 -100 -100 0 -100 0 0 -50 0 -50 -50 0 -50 0 0 -355 0 -355 -50 0 -50 0
0 -200 0 -200 -50 0 -50 0 0 -100 0 -100 50 0 50 0 0 -300 0 -300 50 0 50 0 0
-50 0 -50 -100 0 -100 0 0 50 0 50 -50 0 -50 0 0 300 0 300 -50 0 -50 0 0 450
0 450 50 0 50 0 0 155 0 155 50 0 50 0 0 250 0 250 50 0 50 0 0 50 0 50 50 0
50 0 0 50 0 50 200 0 200 0 0 50 0 50 205 0 205 0 0 50 0 50 -705 0 -705 0 0
-4015z m7230 3765 l0 -50 -50 0 -50 0 0 50 0 50 50 0 50 0 0 -50z m-5920 -800
l0 -50 -50 0 -50 0 0 -55 0 -55 50 0 50 0 0 -50 0 -50 -155 0 -155 0 0 50 0
50 50 0 50 0 0 55 0 55 55 0 55 0 0 50 0 50 50 0 50 0 0 -50z m1300 -210 l0
-50 -50 0 -50 0 0 50 0 50 50 0 50 0 0 -50z m-1300 -200 l0 -50 -50 0 -50 0 0
-50 0 -50 50 0 50 0 0 -50 0 -50 -105 0 -105 0 0 150 0 150 105 0 105 0 0 -50z
m200 0 l0 -50 -50 0 -50 0 0 50 0 50 50 0 50 0 0 -50z m100 -200 l0 -50 -100
0 -100 0 0 50 0 50 100 0 100 0 0 -50z m-610 -400 l0 -350 50 0 50 0 0 -50 0
-50 155 0 155 0 0 -100 0 -100 100 0 100 0 0 50 0 50 50 0 50 0 0 -50 0 -50
50 0 50 0 0 300 0 300 50 0 50 0 0 -150 0 -150 50 0 50 0 0 -50 0 -50 -50 0
-50 0 0 -100 0 -100 -50 0 -50 0 0 -50 0 -50 50 0 50 0 0 -200 0 -200 -150 0
-150 0 0 -155 0 -155 100 0 100 0 0 55 0 55 50 0 50 0 0 -105 0 -105 50 0 50
0 0 -350 0 -350 -100 0 -100 0 0 100 0 100 -100 0 -100 0 0 -50 0 -50 -50 0
-50 0 0 50 0 50 -50 0 -50 0 0 50 0 50 -50 0 -50 0 0 100 0 100 50 0 50 0 0
100 0 100 -100 0 -100 0 0 255 0 255 -55 0 -55 0 0 150 0 150 -100 0 -100 0 0
50 0 50 50 0 50 0 0 150 0 150 -50 0 -50 0 0 350 0 350 50 0 50 0 0 -350z
m210 200 l0 -50 -55 0 -55 0 0 50 0 50 55 0 55 0 0 -50z m1000 0 l0 -50 -50 0
-50 0 0 50 0 50 50 0 50 0 0 -50z m2210 -100 l0 -50 -100 0 -100 0 0 50 0 50
100 0 100 0 0 -50z m2410 -50 l0 -100 -50 0 -50 0 0 100 0 100 50 0 50 0 0
-100z m-6030 -50 l0 -50 -50 0 -50 0 0 50 0 50 50 0 50 0 0 -50z m410 0 l0
-50 50 0 50 0 0 -50 0 -50 -50 0 -50 0 0 50 0 50 -55 0 -55 0 0 50 0 50 55 0
55 0 0 -50z m7830 -100 l0 -50 -50 0 -50 0 0 50 0 50 50 0 50 0 0 -50z m-8240
-100 l0 -50 -50 0 -50 0 0 50 0 50 50 0 50 0 0 -50z m4020 0 l0 -50 150 0 150
0 0 -50 0 -50 100 0 100 0 0 -50 0 -50 100 0 100 0 0 -50 0 -50 50 0 50 0 0
-150 0 -150 -50 0 -50 0 0 -50 0 -50 -50 0 -50 0 0 -50 0 -50 -50 0 -50 0 0
-50 0 -50 -150 0 -150 0 0 -50 0 -50 -700 0 -700 0 0 50 0 50 -105 0 -105 0 0
50 0 50 -200 0 -200 0 0 50 0 50 -50 0 -50 0 0 150 0 150 50 0 50 0 0 100 0
100 100 0 100 0 0 50 0 50 50 0 50 0 0 50 0 50 105 0 105 0 0 -50 0 -50 100 0
100 0 0 -50 0 -50 250 0 250 0 0 -50 0 -50 50 0 50 0 0 50 0 50 100 0 100 0 0
50 0 50 50 0 50 0 0 50 0 50 50 0 50 0 0 50 0 50 50 0 50 0 0 -50z m2210 -450
l0 -500 -50 0 -50 0 0 500 0 500 50 0 50 0 0 -500z m1810 350 l0 -50 -50 0
-50 0 0 -50 0 -50 -50 0 -50 0 0 50 0 50 50 0 50 0 0 50 0 50 50 0 50 0 0 -50z
m-2110 -200 l0 -50 -50 0 -50 0 0 50 0 50 50 0 50 0 0 -50z m0 -300 l0 -50
-50 0 -50 0 0 50 0 50 50 0 50 0 0 -50z m-6130 -150 l0 -100 50 0 50 0 0 -150
0 -150 100 0 100 0 0 -55 0 -55 50 0 50 0 0 55 0 55 50 0 50 0 0 -105 0 -105
-100 0 -100 0 0 50 0 50 -50 0 -50 0 0 -150 0 -150 50 0 50 0 0 -150 0 -150
50 0 50 0 0 -300 0 -300 -50 0 -50 0 0 -50 0 -50 -50 0 -50 0 0 -100 0 -100
-50 0 -50 0 0 100 0 100 50 0 50 0 0 150 0 150 -50 0 -50 0 0 150 0 150 -50 0
-50 0 0 250 0 250 -50 0 -50 0 0 405 0 405 50 0 50 0 0 -100z m1810 50 l0 -50
-50 0 -50 0 0 50 0 50 50 0 50 0 0 -50z m200 0 l0 -50 -50 0 -50 0 0 50 0 50
50 0 50 0 0 -50z m5930 0 l0 -50 -50 0 -50 0 0 50 0 50 50 0 50 0 0 -50z
m-6330 -150 l0 -100 50 0 50 0 0 -50 0 -50 -50 0 -50 0 0 50 0 50 -50 0 -50 0
0 100 0 100 50 0 50 0 0 -100z m1200 -250 l0 -50 55 0 55 0 0 -55 0 -55 -55 0
-55 0 0 55 0 55 -100 0 -100 0 0 50 0 50 100 0 100 0 0 -50z m3620 0 l0 -50
-50 0 -50 0 0 -255 0 -255 -100 0 -100 0 0 -200 0 -200 -50 0 -50 0 0 -50 0
-50 -50 0 -50 0 0 50 0 50 -50 0 -50 0 0 300 0 300 50 0 50 0 0 50 0 50 50 0
50 0 0 50 0 50 50 0 50 0 0 -50 0 -50 50 0 50 0 0 105 0 105 50 0 50 0 0 50 0
50 50 0 50 0 0 -50z m-4320 -105 l0 -55 -50 0 -50 0 0 55 0 55 50 0 50 0 0
-55z m400 -105 l0 -50 -50 0 -50 0 0 50 0 50 50 0 50 0 0 -50z m1310 0 l0 -50
-50 0 -50 0 0 50 0 50 50 0 50 0 0 -50z m4720 -100 l0 -150 -50 0 -50 0 0 150
0 150 50 0 50 0 0 -150z m-4820 -200 l0 -50 -100 0 -100 0 0 50 0 50 100 0
100 0 0 -50z m-3010 -300 l0 -50 -105 0 -105 0 0 50 0 50 105 0 105 0 0 -50z
m0 -250 l0 -100 50 0 50 0 0 50 0 50 50 0 50 0 0 -550 0 -550 50 0 50 0 0
-100 0 -100 50 0 50 0 0 50 0 50 50 0 50 0 0 -50 0 -50 50 0 50 0 0 -205 0
-205 50 0 50 0 0 -200 0 -200 100 0 100 0 0 -200 0 -200 50 0 50 0 0 50 0 50
50 0 50 0 0 -150 0 -150 -50 0 -50 0 0 50 0 50 -50 0 -50 0 0 -150 0 -150 100
0 100 0 0 50 0 50 50 0 50 0 0 -100 0 -100 -100 0 -100 0 0 -50 0 -50 -50 0
-50 0 0 -50 0 -50 -50 0 -50 0 0 100 0 100 -50 0 -50 0 0 150 0 150 -50 0 -50
0 0 -50 0 -50 -50 0 -50 0 0 -250 0 -250 50 0 50 0 0 -50 0 -50 -150 0 -150 0
0 50 0 50 -50 0 -50 0 0 150 0 150 -50 0 -50 0 0 300 0 300 -50 0 -50 0 0 100
0 100 50 0 50 0 0 250 0 250 50 0 50 0 0 100 0 100 -50 0 -50 0 0 105 0 105
-50 0 -50 0 0 50 0 50 50 0 50 0 0 300 0 300 -50 0 -50 0 0 50 0 50 -50 0 -50
0 0 150 0 150 -55 0 -55 0 0 50 0 50 55 0 55 0 0 100 0 100 50 0 50 0 0 -100z
m800 -50 l0 -50 -50 0 -50 0 0 -50 0 -50 -50 0 -50 0 0 50 0 50 50 0 50 0 0
50 0 50 50 0 50 0 0 -50z m1710 0 l0 -50 -50 0 -50 0 0 50 0 50 50 0 50 0 0
-50z m-1810 -300 l0 -50 -50 0 -50 0 0 50 0 50 50 0 50 0 0 -50z m2110 -300
l0 -50 150 0 150 0 0 -50 0 -50 300 0 300 0 0 -50 0 -50 100 0 100 0 0 -100 0
-100 -200 0 -200 0 0 50 0 50 -350 0 -350 0 0 50 0 50 -50 0 -50 0 0 150 0
150 50 0 50 0 0 -50z m-3320 -100 l0 -50 -50 0 -50 0 0 50 0 50 50 0 50 0 0
-50z m3120 -100 l0 -50 -50 0 -50 0 0 -50 0 -50 -205 0 -205 0 0 100 0 100
255 0 255 0 0 -50z m-3020 -100 l0 -50 -50 0 -50 0 0 50 0 50 50 0 50 0 0 -50z
m2410 0 l0 -50 -50 0 -50 0 0 50 0 50 50 0 50 0 0 -50z m2110 0 l0 -50 150 0
150 0 0 -50 0 -50 -200 0 -200 0 0 100 0 100 50 0 50 0 0 -50z m-2410 -100 l0
-50 -50 0 -50 0 0 50 0 50 50 0 50 0 0 -50z m6030 -50 l0 -100 -50 0 -50 0 0
-50 0 -50 -50 0 -50 0 0 50 0 50 50 0 50 0 0 100 0 100 50 0 50 0 0 -100z
m-7940 -50 l0 -50 -100 0 -100 0 0 50 0 50 100 0 100 0 0 -50z m1610 0 l0 -50
-50 0 -50 0 0 50 0 50 50 0 50 0 0 -50z m4220 0 l0 -50 -50 0 -50 0 0 50 0 50
50 0 50 0 0 -50z m-2010 -100 l0 -50 -50 0 -50 0 0 50 0 50 50 0 50 0 0 -50z
m300 -100 l0 -50 100 0 100 0 0 -55 0 -55 -100 0 -100 0 0 55 0 55 -50 0 -50
0 0 50 0 50 50 0 50 0 0 -50z m1210 -860 l0 -100 50 0 50 0 0 -200 0 -200 -50
0 -50 0 0 50 0 50 -50 0 -50 0 0 250 0 250 50 0 50 0 0 -100z m-4320 -1150 l0
-50 -50 0 -50 0 0 50 0 50 50 0 50 0 0 -50z m500 0 l0 -50 -100 0 -100 0 0 50
0 50 100 0 100 0 0 -50z m4020 0 l0 -50 -50 0 -50 0 0 50 0 50 50 0 50 0 0
-50z m1100 0 l0 -50 -50 0 -50 0 0 50 0 50 50 0 50 0 0 -50z m-3210 -200 l0
-50 -50 0 -50 0 0 50 0 50 50 0 50 0 0 -50z m4220 -310 l0 -50 50 0 50 0 0
-300 0 -300 -50 0 -50 0 0 -50 0 -50 -50 0 -50 0 0 -50 0 -50 -50 0 -50 0 0
-50 0 -50 -50 0 -50 0 0 100 0 100 -50 0 -50 0 0 50 0 50 -50 0 -50 0 0 50 0
50 -105 0 -105 0 0 150 0 150 50 0 50 0 0 150 0 150 305 0 305 0 0 -50z
m-1610 -250 l0 -200 -50 0 -50 0 0 -100 0 -100 -50 0 -50 0 0 100 0 100 50 0
50 0 0 200 0 200 50 0 50 0 0 -200z m-4420 50 l0 -50 -50 0 -50 0 0 50 0 50
50 0 50 0 0 -50z m-100 -350 l0 -100 -100 0 -100 0 0 -50 0 -50 -50 0 -50 0 0
50 0 50 50 0 50 0 0 100 0 100 100 0 100 0 0 -100z m3110 50 l0 -50 -50 0 -50
0 0 50 0 50 50 0 50 0 0 -50z m-200 -100 l0 -50 -100 0 -100 0 0 -50 0 -50
-50 0 -50 0 0 50 0 50 50 0 50 0 0 50 0 50 100 0 100 0 0 -50z m-2510 -100 l0
-50 -50 0 -50 0 0 50 0 50 50 0 50 0 0 -50z m2810 0 l0 -50 -50 0 -50 0 0 50
0 50 50 0 50 0 0 -50z m-3010 -200 l0 -50 -50 0 -50 0 0 50 0 50 50 0 50 0 0
-50z"/>
<path d="M1410 5925 l0 -105 50 0 50 0 0 105 0 105 -50 0 -50 0 0 -105z"/>
<path d="M1710 3160 l0 -50 -100 0 -100 0 0 -100 0 -100 200 0 200 0 0 150 0
150 -100 0 -100 0 0 -50z"/>
<path d="M1610 1660 l0 -50 50 0 50 0 0 50 0 50 -50 0 -50 0 0 -50z"/>
<path d="M1610 450 l0 -50 50 0 50 0 0 50 0 50 -50 0 -50 0 0 -50z"/>
<path d="M0 250 l0 -50 50 0 50 0 0 -50 0 -50 50 0 50 0 0 -50 0 -50 50 0 50
0 0 100 0 100 -50 0 -50 0 0 50 0 50 -100 0 -100 0 0 -50z"/>
<path d="M9240 250 l0 -50 50 0 50 0 0 50 0 50 -50 0 -50 0 0 -50z"/>
</g>
</svg>
